<svg xmlns="http://www.w3.org/2000/svg" viewBox="0 0 512 512" width="512" height="512">
  <rect width="512" height="512" rx="80" fill="#0a0d0f"/>
  <rect width="512" height="512" rx="80" fill="url(#grad)" opacity="0.2"/>
  <defs>
    <linearGradient id="grad" x1="0%" y1="0%" x2="100%" y2="100%">
      <stop offset="0%" style="stop-color:#00c9a7;stop-opacity:1" />
      <stop offset="100%" style="stop-color:#0099ff;stop-opacity:1" />
    </linearGradient>
  </defs>
  <!-- Grid -->
  <g opacity="0.1" stroke="#00c9a7" stroke-width="1">
    <line x1="64" y1="0" x2="64" y2="512"/><line x1="128" y1="0" x2="128" y2="512"/>
    <line x1="192" y1="0" x2="192" y2="512"/><line x1="256" y1="0" x2="256" y2="512"/>
    <line x1="320" y1="0" x2="320" y2="512"/><line x1="384" y1="0" x2="384" y2="512"/>
    <line x1="448" y1="0" x2="448" y2="512"/>
    <line x1="0" y1="64" x2="512" y2="64"/><line x1="0" y1="128" x2="512" y2="128"/>
    <line x1="0" y1="192" x2="512" y2="192"/><line x1="0" y1="256" x2="512" y2="256"/>
    <line x1="0" y1="320" x2="512" y2="320"/><line x1="0" y1="384" x2="512" y2="384"/>
    <line x1="0" y1="448" x2="512" y2="448"/>
  </g>
  <!-- Outer ring -->
  <circle cx="256" cy="230" r="140" fill="none" stroke="#1e2a30" stroke-width="16"/>
  <circle cx="256" cy="230" r="140" fill="none" stroke="url(#grad)" stroke-width="8" stroke-dasharray="660" stroke-dashoffset="165" stroke-linecap="round"/>
  <!-- Inner ring -->
  <circle cx="256" cy="230" r="100" fill="none" stroke="#1e2a30" stroke-width="4" opacity="0.5"/>
  <!-- Center -->
  <circle cx="256" cy="230" r="24" fill="#00c9a7"/>
  <circle cx="256" cy="230" r="12" fill="#0a0d0f"/>
  <!-- Needle -->
  <line x1="256" y1="230" x2="336" y2="150" stroke="#00c9a7" stroke-width="6" stroke-linecap="round"/>
  <!-- Ticks -->
  <line x1="256" y1="92" x2="256" y2="112" stroke="#00c9a7" stroke-width="4"/>
  <line x1="394" y1="230" x2="374" y2="230" stroke="#00c9a7" stroke-width="4"/>
  <line x1="118" y1="230" x2="138" y2="230" stroke="#00c9a7" stroke-width="4"/>
  <line x1="157" y1="131" x2="171" y2="145" stroke="#00c9a7" stroke-width="4"/>
  <line x1="355" y1="131" x2="341" y2="145" stroke="#00c9a7" stroke-width="4"/>
  <!-- Label -->
  <text x="256" y="415" text-anchor="middle" font-family="monospace" font-size="42" font-weight="bold" fill="#00c9a7" letter-spacing="4">PLANTCALC</text>
  <text x="256" y="455" text-anchor="middle" font-family="monospace" font-size="18" fill="#5a7080" letter-spacing="6">INSTRUMENTATION</text>
</svg>
