<svg xmlns="http://www.w3.org/2000/svg" viewBox="0 0 192 192" width="192" height="192">
  <rect width="192" height="192" rx="32" fill="#0a0d0f"/>
  <rect width="192" height="192" rx="32" fill="url(#grad)" opacity="0.3"/>
  <defs>
    <linearGradient id="grad" x1="0%" y1="0%" x2="100%" y2="100%">
      <stop offset="0%" style="stop-color:#00c9a7;stop-opacity:1" />
      <stop offset="100%" style="stop-color:#0099ff;stop-opacity:1" />
    </linearGradient>
  </defs>
  <!-- Grid lines -->
  <line x1="32" y1="0" x2="32" y2="192" stroke="#00c9a7" stroke-width="0.5" opacity="0.15"/>
  <line x1="64" y1="0" x2="64" y2="192" stroke="#00c9a7" stroke-width="0.5" opacity="0.15"/>
  <line x1="96" y1="0" x2="96" y2="192" stroke="#00c9a7" stroke-width="0.5" opacity="0.15"/>
  <line x1="128" y1="0" x2="128" y2="192" stroke="#00c9a7" stroke-width="0.5" opacity="0.15"/>
  <line x1="160" y1="0" x2="160" y2="192" stroke="#00c9a7" stroke-width="0.5" opacity="0.15"/>
  <line x1="0" y1="32" x2="192" y2="32" stroke="#00c9a7" stroke-width="0.5" opacity="0.15"/>
  <line x1="0" y1="64" x2="192" y2="64" stroke="#00c9a7" stroke-width="0.5" opacity="0.15"/>
  <line x1="0" y1="96" x2="192" y2="96" stroke="#00c9a7" stroke-width="0.5" opacity="0.15"/>
  <line x1="0" y1="128" x2="192" y2="128" stroke="#00c9a7" stroke-width="0.5" opacity="0.15"/>
  <line x1="0" y1="160" x2="192" y2="160" stroke="#00c9a7" stroke-width="0.5" opacity="0.15"/>
  <!-- Gauge circle -->
  <circle cx="96" cy="88" r="48" fill="none" stroke="#1e2a30" stroke-width="8"/>
  <circle cx="96" cy="88" r="48" fill="none" stroke="url(#grad)" stroke-width="4" stroke-dasharray="226" stroke-dashoffset="56" stroke-linecap="round"/>
  <!-- Center dot -->
  <circle cx="96" cy="88" r="10" fill="#00c9a7"/>
  <circle cx="96" cy="88" r="5" fill="#0a0d0f"/>
  <!-- Needle -->
  <line x1="96" y1="88" x2="128" y2="60" stroke="#00c9a7" stroke-width="3" stroke-linecap="round"/>
  <!-- Tick marks -->
  <line x1="96" y1="42" x2="96" y2="50" stroke="#00c9a7" stroke-width="2" opacity="0.8"/>
  <line x1="142" y1="88" x2="134" y2="88" stroke="#00c9a7" stroke-width="2" opacity="0.8"/>
  <line x1="50" y1="88" x2="58" y2="88" stroke="#00c9a7" stroke-width="2" opacity="0.8"/>
  <!-- Text -->
  <text x="96" y="158" text-anchor="middle" font-family="monospace" font-size="18" font-weight="bold" fill="#00c9a7" letter-spacing="2">PLANTCALC</text>
</svg>
